<?xml version="1.0" standalone="no"?>
<!DOCTYPE svg PUBLIC "-//W3C//DTD SVG 20010904//EN"
 "http://www.w3.org/TR/2001/REC-SVG-20010904/DTD/svg10.dtd">
<svg version="1.0" xmlns="http://www.w3.org/2000/svg"
 width="1024.000000pt" height="1024.000000pt" viewBox="0 0 1024.000000 1024.000000"
 preserveAspectRatio="xMidYMid meet">

<g transform="translate(0.000000,1024.000000) scale(0.100000,-0.100000)"
fill="#000000" stroke="none">
<path d="M5045 8530 c-325 -31 -605 -288 -655 -600 -13 -84 -13 -230 1 -306
23 -132 87 -254 197 -375 82 -91 130 -171 156 -258 29 -98 42 -91 -169 -91
l-185 0 -238 -241 -237 -241 -3 46 c-3 41 0 50 22 67 25 20 26 24 26 139 0
159 14 150 -246 150 -182 0 -202 -2 -217 -18 -14 -15 -17 -41 -17 -140 0 -119
1 -122 25 -138 l25 -16 0 -242 0 -242 -55 -54 -55 -54 0 -658 0 -658 -78 0
c-94 0 -115 -11 -110 -60 2 -25 10 -38 28 -47 37 -19 3703 -19 3740 0 31 15
39 66 15 91 -13 12 -37 16 -111 16 l-94 0 0 657 0 658 -76 76 -76 76 30 6 c20
4 54 32 106 88 94 101 98 126 36 204 -63 79 -65 86 -41 133 12 23 21 48 21 56
0 11 20 15 90 18 126 4 125 4 125 174 0 128 -1 137 -22 154 -12 10 -44 21 -70
24 -113 16 -112 16 -132 60 -33 74 -33 73 13 129 92 113 91 124 -21 238 -108
111 -120 113 -226 39 l-72 -50 -54 20 c-29 10 -55 21 -58 23 -2 2 -10 46 -18
98 -21 128 -22 129 -184 129 -89 -1 -131 -5 -144 -14 -16 -13 -29 -63 -42
-169 -6 -46 -9 -49 -53 -68 -53 -23 -75 -20 -116 17 l-29 25 21 42 c60 121 77
211 70 373 -6 129 -34 236 -85 324 -161 277 -441 421 -758 390z m265 -37 c141
-34 295 -130 389 -243 65 -78 95 -129 133 -231 31 -81 32 -89 32 -244 0 -156
0 -162 -32 -244 -17 -46 -39 -95 -47 -107 -8 -13 -15 -25 -15 -27 0 -3 24 -23
53 -46 l54 -41 64 26 c35 14 65 27 66 28 1 1 7 42 12 90 6 49 17 99 26 112 15
23 20 24 139 24 94 0 126 -3 135 -14 7 -8 19 -60 28 -115 9 -58 20 -101 27
-101 6 0 36 -11 67 -24 l57 -23 73 54 c44 32 84 53 100 53 19 0 46 -21 107
-84 45 -46 82 -91 82 -100 0 -25 -18 -55 -68 -114 l-46 -53 19 -52 c29 -85 38
-94 97 -102 96 -12 128 -24 138 -51 6 -14 10 -72 10 -130 0 -137 -6 -144 -123
-144 l-83 0 -32 -71 -31 -72 54 -70 c30 -39 55 -80 55 -93 0 -46 -140 -194
-184 -194 -25 0 -60 24 -128 89 -21 19 -41 31 -45 27 -4 -4 61 -73 145 -154
l153 -147 -1 -662 0 -662 108 -3 c105 -3 107 -3 110 -27 3 -15 -3 -30 -14 -38
-15 -11 -361 -13 -1864 -13 -2003 0 -1891 -3 -1876 53 6 27 7 27 96 27 l90 0
0 663 0 663 55 54 55 54 0 257 0 256 -25 11 c-25 11 -25 14 -25 125 0 75 4
117 12 125 17 17 399 17 416 0 8 -8 12 -48 12 -115 0 -97 -2 -106 -24 -126
-20 -19 -24 -33 -27 -105 -2 -45 -1 -82 3 -82 3 0 8 4 10 9 2 5 115 122 251
260 l248 251 190 0 189 0 0 34 c0 49 -42 167 -81 228 -18 28 -65 89 -104 134
-86 101 -129 170 -162 266 -24 66 -26 87 -27 233 -1 142 2 168 22 229 79 235
235 391 480 478 104 36 278 42 402 11z"/>
<path d="M4994 8425 c-235 -51 -421 -218 -490 -440 -65 -210 -26 -450 97 -601
19 -23 62 -77 97 -119 90 -111 125 -185 152 -322 l13 -63 53 0 54 0 0 319 0
319 -65 4 c-72 4 -105 22 -142 78 -62 90 14 230 125 230 90 0 151 -63 160
-165 l5 -65 83 0 84 0 0 63 c0 52 5 69 25 98 47 64 118 85 188 55 45 -19 74
-54 88 -107 11 -43 10 -50 -12 -95 -31 -63 -87 -94 -170 -94 l-57 0 2 -317 3
-318 60 -3 60 -3 7 63 c14 125 80 248 217 402 119 135 164 255 162 438 -1 124
-24 216 -80 317 -42 76 -146 184 -225 235 -145 92 -331 127 -494 91z m331 -40
c337 -112 513 -434 429 -780 -21 -83 -75 -176 -161 -273 -40 -45 -89 -106
-108 -136 -42 -62 -81 -169 -91 -243 l-6 -53 -39 0 -39 0 -1 48 c0 26 -2 161
-3 300 l-3 252 41 0 c160 0 248 131 179 266 -38 75 -154 107 -231 64 -61 -35
-86 -74 -90 -147 l-4 -63 -63 0 -62 0 -7 62 c-11 109 -83 172 -187 166 -95 -7
-159 -75 -159 -173 0 -102 80 -175 192 -175 l38 0 0 -300 0 -300 -34 0 c-34 0
-35 1 -46 58 -7 31 -19 77 -27 102 -15 44 -79 170 -92 180 -16 13 -150 179
-172 215 -61 97 -95 233 -86 349 20 264 152 458 383 562 138 61 302 69 449 19z"/>
<path d="M4830 7723 c-16 -20 -20 -36 -16 -58 9 -46 39 -65 102 -65 l54 0 0
49 c0 66 -27 101 -80 101 -30 0 -43 -6 -60 -27z m102 -10 c11 -10 18 -30 18
-55 l0 -39 -46 3 c-37 2 -48 8 -61 30 -15 24 -15 28 0 52 20 30 61 35 89 9z"/>
<path d="M5315 7725 c-20 -19 -25 -34 -25 -75 l0 -50 55 0 c46 0 60 4 80 25
29 28 32 70 9 103 -22 32 -86 31 -119 -3z m99 -11 c41 -40 6 -94 -61 -94 -43
0 -43 0 -43 35 0 62 65 99 104 59z"/>
<path d="M5050 7200 l0 -320 85 0 85 0 0 320 0 320 -85 0 -85 0 0 -320z m150
0 l0 -300 -65 0 -65 0 0 300 0 300 65 0 65 0 0 -300z"/>
<path d="M6105 7510 c-4 -6 -13 -49 -21 -96 -7 -48 -18 -92 -24 -99 -15 -18
-155 -75 -184 -75 -13 0 -52 21 -86 46 l-61 47 -50 -49 c-76 -74 -76 -75 -24
-139 25 -31 45 -64 45 -74 0 -10 -13 -47 -29 -82 -53 -116 -57 -109 53 -109
52 0 98 -4 101 -10 12 -19 22 -9 44 46 28 67 99 141 166 174 72 35 198 40 276
11 256 -96 309 -467 91 -626 -25 -18 -63 -39 -84 -46 -21 -7 -38 -13 -38 -14
0 -1 37 -39 82 -83 l82 -80 27 19 c15 10 31 19 37 19 5 0 42 -27 82 -61 l72
-61 54 53 c30 29 54 56 54 59 0 4 -25 40 -55 81 -64 85 -64 79 -2 207 l42 87
85 5 85 5 3 82 3 81 -51 11 c-28 6 -60 11 -70 11 -48 0 -67 21 -104 114 -20
50 -36 96 -36 103 0 6 24 44 54 84 l54 73 -51 58 c-27 32 -54 58 -60 58 -5 0
-40 -22 -77 -50 -37 -27 -76 -50 -87 -50 -19 0 -97 26 -164 54 -43 18 -45 21
-59 128 -6 45 -14 86 -16 90 -8 12 -152 10 -159 -2z m145 -19 c0 -5 5 -45 11
-88 11 -84 29 -123 57 -123 10 0 22 -4 28 -9 15 -15 126 -51 155 -51 15 0 49
16 75 35 54 39 93 61 97 54 1 -2 19 -23 40 -45 l38 -40 -51 -69 c-27 -37 -50
-77 -50 -88 0 -24 68 -197 84 -214 6 -7 47 -18 91 -25 l80 -14 3 -67 3 -67
-79 0 c-62 0 -82 -4 -95 -17 -20 -23 -97 -198 -97 -222 0 -10 23 -48 50 -84
28 -36 50 -70 50 -75 0 -4 -18 -25 -39 -46 l-40 -39 -48 43 c-26 23 -63 49
-81 58 -30 15 -35 15 -61 -1 l-28 -16 -61 62 -62 63 43 21 c56 27 101 66 135
117 43 62 57 120 56 221 -1 122 -26 186 -104 266 -84 86 -129 103 -265 104
-107 0 -112 -1 -173 -34 -70 -38 -120 -90 -155 -160 l-22 -46 -88 3 c-60 2
-87 7 -87 15 0 7 14 39 30 72 17 33 30 71 30 85 0 14 -18 49 -40 78 -22 29
-40 56 -40 60 0 4 20 27 44 51 48 47 44 47 114 -6 56 -42 92 -42 185 -2 85 37
104 52 111 88 2 14 10 56 16 94 l12 67 64 0 c35 0 64 -4 64 -9z"/>
<path d="M5532 7073 c-26 -57 -52 -148 -52 -184 0 -5 17 -9 38 -9 l37 1 28 82
c16 45 30 89 33 97 3 8 -8 30 -23 49 l-29 34 -32 -70z m56 7 c10 -17 9 -26 -7
-58 -10 -20 -24 -56 -30 -80 -9 -31 -17 -42 -32 -42 -20 0 -20 -3 -3 78 7 36
45 122 53 122 3 0 12 -9 19 -20z"/>
<path d="M6100 7035 c-85 -26 -170 -121 -185 -208 l-7 -38 153 -155 c84 -84
160 -154 167 -154 39 0 99 28 142 67 69 62 90 111 90 209 0 100 -27 162 -95
222 -76 67 -169 86 -265 57z m199 -35 c46 -23 97 -80 122 -134 25 -55 25 -167
0 -221 -35 -78 -156 -160 -200 -135 -30 16 -291 286 -291 301 0 33 51 118 91
152 78 67 190 82 278 37z"/>
<path d="M4500 6800 c0 -3 197 -202 438 -443 l437 -437 643 2 643 3 -438 443
-438 443 -155 -3 -155 -3 -5 -55 c-5 -61 -28 -105 -59 -115 -13 -4 -21 -19
-25 -50 -10 -65 -60 -132 -126 -169 -48 -27 -64 -31 -130 -30 -85 1 -134 21
-187 76 -34 35 -63 94 -63 127 0 11 -19 37 -41 59 -37 34 -42 46 -48 97 l-6
58 -142 1 c-79 1 -143 -1 -143 -4z m271 -61 c7 -57 30 -101 63 -119 18 -9 26
-22 26 -39 1 -66 78 -164 152 -195 166 -70 364 25 392 186 4 23 15 42 27 49
34 18 59 70 59 122 l0 47 144 0 144 0 416 -422 416 -423 -613 -3 -612 -2 -417
417 -418 418 98 5 c53 3 102 5 107 5 6 -1 12 -21 16 -46z"/>
<path d="M4860 6775 c0 -17 7 -40 15 -52 15 -21 20 -22 256 -20 152 0 245 5
254 11 8 6 15 28 17 50 l3 38 -273 2 -272 1 0 -30z m518 -20 l-3 -30 -235 -1
c-145 -1 -240 2 -247 8 -7 6 -13 20 -13 32 0 21 2 21 250 21 l251 0 -3 -30z"/>
<path d="M4398 6770 c-1 -5 -202 -209 -444 -452 l-442 -443 3 -400 c2 -220 4
-511 4 -647 l1 -248 295 0 295 0 0 304 c0 287 1 307 22 360 28 74 86 138 153
171 46 23 68 27 134 27 66 -1 90 -6 136 -28 65 -32 118 -87 149 -153 20 -43
21 -66 26 -361 l5 -315 288 -3 287 -2 0 647 0 648 -446 453 c-245 248 -450
452 -454 452 -5 0 -10 -4 -12 -10z m892 -1537 l0 -633 -269 0 -270 0 -3 318
c-3 309 -4 318 -26 360 -63 119 -168 183 -300 185 -64 0 -88 -4 -139 -28 -72
-32 -129 -88 -164 -161 -23 -48 -24 -57 -27 -361 l-3 -313 -275 0 -274 0 0
238 c-1 130 -2 415 -4 632 l-3 394 441 444 441 444 437 -443 437 -444 1 -632z"/>
<path d="M4159 6143 c-18 -20 -26 -464 -10 -506 l11 -27 259 0 c247 0 261 1
271 19 6 12 10 113 10 260 0 204 -2 242 -16 255 -13 14 -51 16 -263 16 -219 0
-250 -2 -262 -17z m509 -11 c9 -7 12 -64 10 -253 l-3 -244 -249 -3 c-193 -2
-251 1 -258 10 -12 19 -10 456 2 479 10 18 24 19 248 19 130 0 243 -4 250 -8z"/>
<path d="M4240 5995 l0 -76 73 3 72 3 0 70 0 70 -72 3 -73 3 0 -76z m130 0 l0
-55 -55 0 -55 0 0 55 0 55 55 0 55 0 0 -55z"/>
<path d="M4454 6057 c-3 -8 -4 -41 -2 -73 l3 -59 78 -3 78 -3 -3 73 -3 73 -73
3 c-55 2 -74 0 -78 -11z m136 -62 l0 -55 -60 0 -60 0 0 55 0 55 60 0 60 0 0
-55z"/>
<path d="M4240 5775 l0 -76 73 3 72 3 3 73 3 72 -76 0 -75 0 0 -75z m130 0 l0
-55 -55 0 -55 0 0 55 0 55 55 0 55 0 0 -55z"/>
<path d="M4452 5778 l3 -73 78 -3 77 -3 0 76 0 75 -80 0 -81 0 3 -72z m138 -3
l0 -55 -60 0 -60 0 0 55 0 55 60 0 60 0 0 -55z"/>
<path d="M3576 6698 c-3 -13 -6 -38 -6 -56 l0 -33 148 3 147 3 3 53 3 52 -144
0 c-142 0 -145 0 -151 -22z m274 -33 l0 -36 -127 3 -128 3 -1 25 c-1 14 0 28
3 33 2 4 60 7 129 7 l124 0 0 -35z"/>
<path d="M4950 6609 c0 -41 33 -92 79 -121 41 -26 53 -29 112 -26 95 5 151 51
173 141 l6 27 -185 0 c-181 0 -185 0 -185 -21z m340 -13 c0 -25 -45 -81 -80
-99 -50 -26 -137 -19 -177 14 -29 24 -63 72 -63 90 0 5 69 9 160 9 128 0 160
-3 160 -14z"/>
<path d="M3620 6315 c0 -118 4 -215 8 -215 5 0 49 42 98 93 l89 92 -3 123 -3
122 -95 0 -94 0 0 -215z m170 82 l0 -113 -75 -74 -75 -75 0 188 1 187 75 0 74
0 0 -113z"/>
<path d="M5390 5210 l0 -630 660 0 660 0 0 630 0 630 -660 0 -660 0 0 -630z
m1300 0 l0 -610 -640 0 -640 0 0 610 0 610 640 0 640 0 0 -610z"/>
<path d="M5862 5678 c-7 -7 -12 -39 -12 -75 l0 -63 -38 0 c-47 0 -62 -14 -62
-57 l0 -33 -61 0 c-33 0 -69 -5 -80 -10 -27 -15 -25 -60 3 -68 l22 -5 -22 -8
c-27 -10 -30 -54 -4 -64 16 -6 16 -7 0 -16 -21 -12 -23 -40 -6 -57 9 -9 9 -15
0 -24 -17 -17 -15 -45 6 -57 16 -9 16 -10 0 -16 -26 -10 -23 -54 4 -64 l22 -8
-22 -5 c-15 -4 -22 -14 -22 -31 0 -35 10 -39 91 -39 l69 0 0 -37 c0 -47 14
-61 62 -61 l38 0 0 -63 c0 -36 5 -68 12 -75 14 -14 54 -16 63 -2 4 6 13 5 25
-3 15 -9 24 -9 38 0 12 7 24 8 33 2 20 -13 59 -11 59 3 0 9 3 9 12 0 15 -15
50 -16 65 -1 8 8 13 8 17 0 9 -14 49 -14 63 0 8 8 13 8 17 0 9 -15 49 -14 64
1 7 7 12 39 12 75 l0 63 38 0 c47 0 62 14 62 57 l0 33 68 0 c40 0 73 5 80 12
18 18 15 55 -5 67 -17 10 -17 10 0 11 20 0 24 49 5 68 -8 8 -9 12 -1 12 7 0
11 25 11 70 0 45 -4 70 -11 70 -8 0 -7 4 1 12 17 17 15 57 -2 64 -12 5 -11 9
5 25 15 15 17 24 9 39 -9 17 -21 20 -85 20 l-75 0 0 44 c0 48 -9 56 -66 56
l-34 0 0 64 c0 41 -5 68 -12 73 -18 11 -200 12 -215 1 -7 -5 -14 -5 -18 2 -8
13 -48 13 -62 -1 -8 -8 -17 -7 -32 3 -17 10 -25 10 -41 1 -12 -8 -21 -9 -25
-3 -9 14 -49 12 -63 -2z m48 -74 c0 -57 -2 -65 -17 -62 -14 2 -19 15 -21 52
-4 57 2 76 23 76 12 0 15 -13 15 -66z m78 -3 c3 -56 1 -62 -15 -59 -14 2 -19
14 -21 52 -4 56 3 79 21 74 7 -3 13 -28 15 -67z m80 0 c3 -56 1 -62 -15 -59
-14 2 -19 14 -21 52 -4 56 3 79 21 74 7 -3 13 -28 15 -67z m77 3 c0 -46 -3
-59 -15 -59 -11 0 -16 13 -18 49 -4 56 3 79 21 73 8 -2 12 -24 12 -63z m80 0
c0 -46 -3 -59 -15 -59 -11 0 -16 13 -18 49 -4 56 3 79 21 73 8 -2 12 -24 12
-63z m80 1 c0 -47 -3 -60 -15 -60 -11 0 -16 15 -18 63 -3 57 -1 63 15 60 15
-3 18 -13 18 -63z m100 -395 l0 -305 -315 0 -315 0 -3 295 c-1 162 0 301 3
308 3 10 71 12 317 10 l313 -3 0 -305z m-665 200 c0 -18 -7 -20 -59 -20 -59 0
-86 14 -60 31 8 5 38 9 67 9 45 0 52 -3 52 -20z m834 1 c12 -18 -24 -32 -76
-29 -41 2 -54 7 -56 21 -3 15 5 17 62 17 36 0 67 -4 70 -9z m-834 -81 c0 -18
-7 -20 -59 -20 -59 0 -86 14 -60 31 8 5 38 9 67 9 45 0 52 -3 52 -20z m828 -2
c3 -16 -5 -18 -62 -18 -60 0 -66 2 -66 20 0 19 5 21 62 18 50 -2 63 -6 66 -20z
m-828 -78 c0 -18 -7 -20 -59 -20 -33 0 -63 5 -66 10 -13 21 8 30 66 30 52 0
59 -2 59 -20z m828 -2 c3 -16 -5 -18 -62 -18 -60 0 -66 2 -66 20 0 19 5 21 62
18 50 -2 63 -6 66 -20z m-828 -78 c0 -18 -7 -20 -59 -20 -33 0 -63 5 -66 10
-13 21 8 30 66 30 52 0 59 -2 59 -20z m828 3 c-3 -15 -16 -19 -66 -21 -57 -3
-62 -1 -62 18 0 18 6 20 66 20 57 0 65 -2 62 -17z m-828 -83 c0 -17 -7 -20
-52 -20 -29 0 -59 4 -67 9 -26 17 1 31 60 31 52 0 59 -2 59 -20z m828 3 c-3
-15 -16 -19 -66 -21 -57 -3 -62 -1 -62 18 0 18 6 20 66 20 57 0 65 -2 62 -17z
m-830 -75 c3 -13 -7 -17 -53 -20 -68 -4 -89 6 -60 28 27 21 109 15 113 -8z
m830 -5 c-3 -15 -16 -19 -66 -21 -57 -3 -62 -1 -62 18 0 18 6 20 66 20 57 0
65 -2 62 -17z m-658 -199 c0 -57 -2 -65 -17 -62 -15 3 -19 16 -21 66 -3 57 -1
62 18 62 18 0 20 -6 20 -66z m75 1 c0 -47 -3 -60 -15 -60 -11 0 -16 15 -18 63
-3 57 -1 63 15 60 15 -3 18 -13 18 -63z m83 3 c-2 -48 -7 -63 -18 -63 -11 0
-16 15 -18 63 -3 57 -1 62 18 62 19 0 21 -5 18 -62z m80 0 c-2 -50 -6 -63 -20
-66 -16 -3 -18 5 -18 62 0 60 2 66 20 66 19 0 21 -5 18 -62z m77 -3 c0 -47 -3
-60 -15 -60 -11 0 -16 15 -18 63 -3 57 -1 63 15 60 15 -3 18 -13 18 -63z m80
0 c0 -49 -3 -60 -17 -63 -16 -3 -18 5 -18 63 0 58 2 66 18 63 14 -3 17 -14 17
-63z"/>
<path d="M5834 5437 c-2 -7 -3 -114 -2 -237 l3 -225 254 -3 c197 -2 256 1 263
10 9 15 11 428 2 452 -5 14 -38 16 -260 16 -197 0 -256 -3 -260 -13z m506
-227 l0 -220 -245 0 -245 0 0 220 0 220 245 0 245 0 0 -220z"/>
<path d="M4330 5349 c-54 -25 -75 -42 -109 -94 l-26 -40 -3 -317 -3 -318 235
0 236 0 0 283 c0 331 -5 363 -74 431 -72 73 -171 94 -256 55z m199 -37 c27
-16 58 -48 76 -76 l30 -49 3 -294 3 -293 -215 0 -216 0 0 289 c0 307 2 323 51
385 12 16 45 39 73 53 65 31 130 26 195 -15z"/>
<path d="M3682 7854 c-87 -43 -152 -143 -152 -234 0 -32 -4 -39 -27 -49 -36
-15 -99 -74 -121 -114 -13 -24 -17 -56 -17 -132 0 -95 2 -102 30 -145 17 -25
54 -61 83 -80 39 -26 52 -40 52 -59 0 -43 46 -107 93 -130 155 -75 317 64 263
228 -14 44 -14 53 -1 85 8 19 15 49 15 66 0 24 6 32 34 44 47 20 114 82 138
130 48 94 31 238 -38 323 -53 64 -120 93 -219 93 -67 0 -90 -4 -133 -26z m266
-25 c116 -66 165 -223 108 -344 -27 -58 -63 -95 -126 -128 -41 -22 -45 -27
-50 -69 -3 -24 -13 -56 -23 -71 -16 -24 -15 -28 4 -73 27 -60 21 -113 -18
-163 -57 -70 -141 -90 -213 -50 -41 24 -80 82 -80 123 0 20 -11 33 -54 60 -84
54 -116 112 -116 212 0 36 7 81 16 102 19 46 68 98 115 122 34 18 36 22 42 80
10 93 50 154 131 201 45 25 61 29 131 29 71 0 86 -4 133 -31z"/>
<path d="M3740 7774 c-72 -31 -112 -95 -116 -189 -2 -33 -3 -63 -4 -66 0 -3
-25 -16 -56 -28 -89 -38 -131 -122 -105 -217 12 -47 42 -78 109 -114 45 -24
47 -28 53 -77 8 -61 12 -69 50 -88 37 -19 69 -11 104 25 24 25 27 35 22 70 -3
23 -12 49 -21 59 -22 24 -20 53 4 84 12 15 23 49 27 79 7 64 13 73 73 103 53
27 107 83 116 121 13 52 -1 140 -29 177 -51 67 -151 94 -227 61z m150 -26 c24
-13 53 -35 63 -50 21 -28 33 -111 23 -152 -9 -38 -61 -91 -111 -115 -53 -25
-71 -50 -79 -114 -3 -27 -15 -60 -26 -74 -26 -33 -26 -78 0 -110 26 -34 25
-74 -2 -100 -53 -49 -118 -19 -118 55 0 48 -14 67 -75 100 -61 34 -86 67 -92
125 -4 37 -1 54 20 89 23 40 47 57 120 86 27 12 31 22 27 74 -3 43 27 132 52
155 30 29 86 52 123 53 17 0 51 -10 75 -22z"/>
<path d="M4885 4131 c-52 -13 -89 -38 -137 -89 -63 -67 -82 -133 -76 -254 5
-77 10 -95 39 -144 38 -63 104 -116 164 -133 22 -6 72 -11 111 -11 86 0 158
32 205 91 37 47 35 65 -12 92 l-36 21 -44 -37 c-92 -74 -201 -63 -269 27 -72
97 -41 254 60 306 69 35 162 18 214 -39 24 -26 40 -26 77 0 58 41 24 103 -81
152 -49 22 -163 32 -215 18z m178 -25 c47 -17 101 -53 117 -79 10 -17 8 -23
-14 -45 l-26 -26 -27 26 c-62 58 -145 74 -220 43 -52 -22 -72 -42 -99 -100
-63 -133 3 -287 138 -323 21 -6 45 -9 55 -7 10 2 30 6 45 9 14 3 48 22 73 42
l47 35 24 -22 23 -22 -25 -33 c-15 -18 -50 -45 -80 -60 -47 -23 -63 -26 -131
-22 -91 4 -136 23 -192 80 -110 109 -109 328 1 435 66 63 109 81 198 82 30 0
72 -6 93 -13z"/>
<path d="M6026 4125 c-22 -8 -55 -30 -75 -49 -31 -32 -35 -42 -39 -99 -5 -77
16 -130 62 -158 17 -10 73 -35 124 -55 107 -41 127 -64 98 -109 -36 -55 -113
-53 -186 4 -55 43 -57 43 -94 10 -44 -39 -45 -61 -3 -99 77 -71 239 -92 332
-44 62 32 86 83 83 171 -3 64 -7 75 -33 103 -35 37 -99 71 -167 90 -47 12 -98
49 -98 70 0 23 49 60 80 60 37 0 90 -21 109 -43 20 -25 57 -21 80 9 30 38 27
67 -12 97 -70 53 -180 71 -261 42z m207 -34 c60 -29 74 -53 52 -87 -18 -28
-37 -31 -56 -7 -21 24 -73 43 -119 43 -33 0 -48 -6 -71 -29 -31 -31 -35 -51
-19 -82 13 -23 46 -41 130 -69 111 -37 160 -89 160 -169 0 -60 -25 -112 -67
-141 -32 -22 -47 -25 -127 -25 -99 0 -147 17 -195 69 l-25 26 29 30 28 29 39
-34 c80 -68 199 -65 228 6 27 63 0 91 -131 139 -131 49 -159 79 -159 172 0 47
5 62 27 89 61 71 176 88 276 40z"/>
<path d="M3375 4107 c-3 -7 -4 -143 -3 -302 l3 -290 190 0 190 0 3 44 c2 24
-1 48 -5 52 -5 5 -66 9 -136 11 l-127 1 0 249 0 248 -55 0 c-36 0 -57 -5 -60
-13z m97 -254 c3 -212 5 -248 18 -249 8 -1 68 -2 133 -3 l117 -1 0 -35 0 -35
-175 0 -175 0 0 285 0 285 40 0 40 0 2 -247z"/>
<path d="M4025 4084 c-8 -20 -15 -42 -15 -49 0 -6 -3 -14 -6 -18 -4 -3 -17
-37 -31 -74 -13 -37 -38 -106 -55 -153 -76 -211 -88 -246 -88 -262 0 -15 9
-18 59 -18 l58 0 16 43 c8 23 18 52 22 65 6 21 11 22 115 22 l108 0 20 -62 19
-63 57 -3 c43 -2 58 1 62 12 3 8 -9 55 -26 103 -17 48 -40 113 -50 143 -10 30
-31 87 -45 125 -15 39 -35 96 -45 127 -32 97 -33 98 -100 98 -59 0 -60 0 -75
-36z m138 -26 c8 -24 34 -95 57 -158 64 -177 130 -363 130 -367 0 -2 -19 -3
-42 -1 -43 3 -43 3 -64 63 l-21 60 -123 0 -123 0 -22 -60 c-22 -59 -23 -60
-64 -63 -22 -2 -41 -1 -41 2 0 2 28 80 61 173 81 223 139 384 139 389 0 2 22
4 49 4 49 0 49 0 64 -42z"/>
<path d="M4087 3978 c-2 -13 -21 -68 -41 -122 -20 -55 -36 -106 -36 -113 0
-10 22 -13 90 -13 50 0 90 3 90 8 0 16 -85 262 -91 262 -4 0 -9 -10 -12 -22z
m50 -138 l32 -90 -70 0 c-53 0 -69 3 -66 13 3 6 17 47 32 90 15 42 30 77 34
77 3 0 21 -40 38 -90z"/>
<path d="M5485 4087 c-7 -18 -27 -71 -43 -118 -17 -46 -42 -115 -56 -154 -13
-38 -41 -115 -60 -169 -49 -136 -49 -136 23 -136 64 0 59 -5 92 93 l13 37 106
0 105 0 20 -63 20 -62 56 -3 c40 -2 58 1 62 11 3 7 -6 44 -19 83 -14 38 -33
94 -44 124 -10 30 -30 87 -45 125 -14 39 -39 106 -54 150 -16 44 -32 88 -36
98 -6 13 -19 17 -67 17 -57 0 -59 -1 -73 -33z m152 -82 c18 -49 46 -126 62
-170 16 -44 47 -131 69 -192 l41 -113 -43 0 -42 0 -23 65 -23 66 -121 -3 -121
-3 -21 -60 c-21 -59 -22 -60 -63 -63 -23 -2 -42 -1 -42 1 0 4 43 127 137 387
24 69 49 138 55 153 10 26 14 28 57 25 l46 -3 32 -90z"/>
<path d="M5550 3998 c0 -4 -20 -63 -44 -132 -24 -68 -41 -127 -38 -130 8 -9
182 -7 182 2 0 13 -83 247 -92 257 -4 5 -8 6 -8 3z m41 -152 c17 -48 29 -90
26 -92 -3 -3 -32 -4 -65 -2 l-60 3 30 93 c17 51 32 91 34 89 2 -2 18 -43 35
-91z"/>
<path d="M6587 4098 c-3 -13 -29 -86 -57 -163 -28 -77 -60 -165 -70 -195 -10
-30 -30 -85 -44 -123 -39 -102 -38 -107 33 -107 64 0 59 -5 92 93 l13 37 106
0 105 0 21 -63 20 -62 57 -3 c43 -2 59 1 63 12 5 14 -17 80 -110 336 -19 52
-47 131 -63 175 l-29 80 -66 3 c-61 3 -66 1 -71 -20z m141 -55 c11 -32 51
-141 88 -243 36 -102 70 -196 74 -210 4 -14 11 -33 15 -43 7 -16 3 -18 -36
-15 -44 3 -44 3 -65 63 l-21 60 -123 0 -123 0 -21 -60 c-21 -60 -21 -60 -63
-63 -24 -2 -43 -1 -43 1 0 3 103 291 192 540 9 24 15 27 58 27 l47 0 21 -57z"/>
<path d="M6645 3978 c-6 -20 -69 -200 -82 -235 -4 -10 18 -13 92 -13 96 0 97
0 92 23 -11 48 -82 247 -89 247 -4 0 -10 -10 -13 -22z m53 -140 l30 -88 -68 0
-69 0 9 28 c4 15 15 47 25 72 9 25 19 55 22 68 8 33 17 19 51 -80z"/>
<path d="M5512 3307 c-89 -33 -142 -114 -142 -216 0 -74 15 -117 54 -160 88
-95 242 -95 334 0 78 80 70 252 -14 331 -56 52 -158 71 -232 45z m140 -17 c84
-24 138 -101 138 -199 0 -71 -12 -106 -48 -144 -82 -87 -221 -89 -299 -5 -71
75 -70 218 0 294 51 56 130 76 209 54z"/>
<path d="M5499 3191 c-36 -36 -39 -43 -39 -95 0 -31 7 -70 14 -85 41 -79 160
-89 219 -19 23 27 27 42 27 91 0 101 -43 147 -136 147 -41 0 -51 -5 -85 -39z
m157 1 c31 -25 44 -55 44 -104 0 -93 -78 -149 -156 -112 -43 21 -64 59 -64
118 0 36 6 52 31 81 27 31 37 35 78 35 28 0 54 -7 67 -18z"/>
<path d="M5955 3306 c-71 -32 -102 -107 -72 -178 16 -39 52 -62 135 -88 60
-19 73 -37 43 -61 -27 -22 -61 -18 -103 12 -35 25 -50 24 -76 -4 -29 -31 -28
-53 6 -82 81 -72 247 -54 287 32 24 50 16 116 -20 153 -14 15 -50 35 -79 44
-57 18 -96 41 -96 57 0 5 12 14 26 20 21 7 36 5 68 -11 54 -26 71 -25 90 2 22
31 20 51 -6 75 -47 42 -143 55 -203 29z m174 -34 c32 -23 35 -33 17 -57 -14
-20 -15 -20 -47 -1 -57 34 -139 20 -139 -24 0 -26 31 -48 97 -71 72 -24 103
-54 109 -106 6 -47 -11 -80 -55 -110 -59 -40 -168 -27 -215 26 -20 22 -20 22
2 43 20 21 22 21 41 4 48 -43 145 -37 157 10 9 34 -15 57 -81 78 -31 10 -71
30 -88 46 -27 24 -32 35 -32 73 0 50 21 81 70 104 40 18 131 10 164 -15z"/>
<path d="M4076 3294 c-3 -9 -6 -100 -6 -204 0 -104 3 -195 6 -204 5 -13 26
-16 122 -16 104 0 119 2 156 24 56 33 84 74 94 140 19 120 -24 217 -112 257
-56 25 -251 28 -260 3z m252 -23 c76 -39 104 -90 104 -189 -1 -78 -31 -137
-90 -170 -34 -19 -54 -22 -146 -22 l-106 0 0 200 0 200 100 0 c79 0 109 -4
138 -19z"/>
<path d="M4160 3090 l0 -140 56 0 c68 0 104 19 134 73 57 101 -17 207 -145
207 l-45 0 0 -140z m131 97 c71 -48 77 -127 15 -184 -29 -27 -44 -33 -81 -33
l-45 0 0 120 0 120 39 0 c23 0 51 -9 72 -23z"/>
<path d="M4516 3288 c-3 -13 -6 -109 -6 -215 0 -156 3 -194 14 -200 8 -4 76
-7 151 -5 l136 3 -3 47 -3 47 -94 3 c-91 3 -93 3 -87 25 3 12 6 28 6 35 0 8
22 12 74 12 l74 0 5 33 c8 57 -4 67 -88 67 l-75 0 0 35 0 34 88 3 87 3 0 45 0
45 -136 3 c-135 3 -137 2 -143 -20z m264 -28 l0 -29 -87 -3 -88 -3 -3 -52 -3
-53 80 0 c44 0 82 -4 85 -8 3 -5 2 -18 -1 -30 -5 -20 -12 -22 -78 -22 l-72 0
-7 -37 c-12 -76 -16 -73 89 -73 l95 0 0 -29 0 -30 -126 -3 c-69 -2 -128 -1
-130 1 -7 7 -4 387 3 394 3 4 60 7 125 7 l118 0 0 -30z"/>
<path d="M5066 3294 c-9 -24 -7 -397 3 -412 6 -10 41 -13 136 -13 70 0 129 2
132 4 8 9 9 62 1 80 -7 14 -22 17 -88 17 l-80 0 0 170 0 170 -49 0 c-35 0 -51
-4 -55 -16z m84 -174 l0 -170 83 0 c46 0 86 -3 89 -6 3 -3 3 -17 -1 -30 -6
-25 -7 -25 -121 -25 l-115 0 -3 200 -2 201 35 0 35 0 0 -170z"/>
<path d="M6324 2664 c-116 -41 -194 -163 -194 -304 0 -145 72 -255 195 -297
65 -22 195 -14 251 15 56 28 129 112 148 169 39 113 9 270 -64 343 -60 60
-135 90 -222 89 -40 0 -92 -7 -114 -15z m231 -28 c59 -28 108 -74 138 -130 18
-34 22 -58 22 -141 0 -114 -14 -152 -82 -217 -58 -56 -114 -78 -204 -78 -119
0 -195 46 -252 154 -18 34 -22 57 -21 136 0 82 4 102 26 145 24 45 52 78 100
114 61 46 194 54 273 17z"/>
<path d="M6362 2569 c-77 -30 -114 -89 -120 -190 -6 -98 17 -155 79 -196 37
-24 52 -28 114 -28 61 0 77 4 113 28 60 39 86 95 87 183 0 61 -4 77 -30 119
-38 62 -98 95 -169 94 -28 0 -62 -4 -74 -10z m155 -30 c127 -62 133 -271 10
-344 -87 -51 -204 -20 -247 65 -22 44 -27 140 -9 187 36 97 149 139 246 92z"/>
<path d="M6950 2667 c-73 -34 -110 -91 -110 -170 0 -87 49 -140 164 -177 75
-25 129 -58 134 -83 2 -9 -8 -28 -22 -42 -43 -43 -140 -31 -190 24 -26 28 -54
26 -88 -6 -41 -40 -37 -67 20 -107 56 -41 108 -56 194 -56 75 0 132 24 171 69
34 41 41 67 35 137 -7 86 -57 134 -173 169 -75 22 -115 50 -115 79 0 67 127
75 179 12 8 -9 21 -16 31 -16 22 0 70 55 70 80 0 22 -49 62 -103 85 -43 18
-160 19 -197 2z m205 -31 c79 -37 90 -64 40 -106 -13 -11 -19 -10 -38 7 -35
33 -63 43 -112 43 -38 0 -52 -5 -76 -29 -16 -16 -29 -37 -29 -46 0 -28 53 -71
110 -90 143 -47 190 -91 190 -178 0 -59 -19 -98 -67 -134 -30 -23 -48 -28
-109 -31 -82 -5 -130 8 -191 50 -49 33 -52 46 -19 77 l25 23 46 -33 c38 -27
57 -34 110 -37 61 -4 66 -3 95 26 16 17 30 40 30 52 0 34 -50 75 -120 99 -92
30 -140 61 -161 101 -42 79 -7 179 76 216 49 22 143 17 200 -10z"/>
<path d="M3026 2654 c-11 -27 -7 -582 4 -589 18 -11 55 -15 83 -9 l27 6 0 304
0 304 -54 0 c-40 0 -55 -4 -60 -16z m92 -291 l-3 -288 -35 0 -35 0 -3 288 -2
287 40 0 40 0 -2 -287z"/>
<path d="M3287 2663 c-4 -3 -7 -140 -7 -304 l0 -297 28 -6 c15 -3 36 -4 47 -2
11 3 26 5 33 5 9 1 12 46 13 189 0 148 3 183 12 169 88 -133 254 -354 270
-360 11 -4 33 -5 49 -2 l28 7 0 304 0 304 -55 0 -55 0 0 -186 0 -187 -47 66
c-27 37 -86 121 -133 187 l-84 120 -46 0 c-26 0 -50 -3 -53 -7z m233 -220
l145 -208 3 208 2 207 35 0 35 0 0 -285 c0 -255 -2 -286 -16 -292 -9 -3 -24
-2 -33 4 -17 11 -171 221 -249 340 -26 40 -50 73 -54 73 -4 0 -9 -93 -10 -207
l-3 -208 -35 0 -35 0 -3 288 -2 287 38 0 38 0 144 -207z"/>
<path d="M3867 2656 c-6 -15 2 -50 23 -101 24 -59 29 -71 60 -160 31 -87 85
-235 110 -302 12 -33 44 -47 85 -39 11 3 25 5 31 5 6 1 16 13 22 29 56 149
113 300 173 466 42 114 41 116 -30 116 l-59 0 -20 -52 c-20 -53 -64 -177 -105
-295 -22 -67 -32 -76 -40 -40 -6 28 -104 311 -122 355 -13 31 -16 32 -68 32
-39 0 -57 -4 -60 -14z m141 -118 c21 -62 57 -164 78 -225 21 -62 41 -113 44
-113 3 0 39 93 79 208 41 114 78 215 83 225 6 12 21 17 48 17 22 0 40 -2 40
-4 0 -3 -107 -297 -170 -466 -17 -46 -35 -89 -40 -95 -13 -16 -66 -17 -79 -2
-6 8 -53 130 -105 273 -52 142 -97 267 -101 277 -6 15 -1 17 38 17 l45 0 40
-112z"/>
<path d="M4500 2366 l0 -304 23 -6 c29 -8 305 -8 335 0 19 6 22 13 22 55 0 64
-11 69 -149 69 l-111 0 0 65 0 65 99 0 c55 0 106 3 115 6 12 4 16 20 16 54 0
34 -4 50 -16 54 -9 3 -60 6 -115 6 l-99 0 0 66 0 65 58 -1 c31 -1 90 -1 130
-1 l73 1 -3 53 -3 52 -187 3 -188 2 0 -304z m360 249 l0 -35 -130 0 -130 0 0
-85 0 -84 113 -3 112 -3 0 -35 0 -35 -112 -3 -113 -3 0 -84 0 -84 128 -3 127
-3 0 -40 0 -40 -165 0 -165 0 -3 288 -2 287 170 0 170 0 0 -35z"/>
<path d="M5010 2366 l0 -304 30 -7 c17 -4 44 -4 60 0 l30 7 1 186 c0 148 3
183 12 169 82 -124 252 -353 265 -358 9 -4 32 -4 50 -2 l32 5 0 304 0 304 -55
0 c-30 0 -56 -1 -57 -2 -1 -2 -4 -81 -7 -177 l-6 -174 -125 176 -124 177 -53
0 -53 0 0 -304z m225 98 c72 -102 134 -194 139 -205 5 -10 12 -19 15 -19 4 0
7 91 6 203 l0 202 38 3 37 3 0 -284 0 -285 -24 -4 c-14 -3 -29 -2 -34 1 -4 3
-73 98 -153 211 l-144 204 -5 -209 -5 -210 -35 0 -35 0 -3 288 -2 287 37 0
c38 -1 39 -2 168 -186z"/>
<path d="M5617 2664 c-4 -4 -7 -29 -7 -55 0 -56 6 -59 96 -59 l64 0 0 -234 c0
-268 1 -273 73 -263 22 3 44 11 48 19 5 7 9 118 9 246 l0 232 59 0 c33 0 71 4
86 10 24 9 26 14 23 57 l-3 48 -221 3 c-121 1 -223 -1 -227 -4z m433 -48 c0
-41 -10 -46 -101 -46 l-69 0 0 -244 0 -244 -26 -6 c-14 -4 -34 -4 -45 -1 -18
6 -19 19 -19 250 l0 244 -77 3 -78 3 -3 38 -3 37 210 0 211 0 0 -34z"/>
</g>
</svg>
